<svg width="51" height="50" viewBox="0 0 51 50" fill="none" xmlns="http://www.w3.org/2000/svg">
<path fill-rule="evenodd" clip-rule="evenodd" d="M35.9166 33.3337C35.3641 33.3337 34.8342 33.5532 34.4435 33.9439C34.0528 34.3346 33.8333 34.8645 33.8333 35.417V43.7503C33.8333 44.9009 32.9006 45.8337 31.75 45.8337C30.5994 45.8337 29.6666 44.9009 29.6666 43.7503V35.417C29.6666 33.7594 30.3251 32.1697 31.4972 30.9976C32.6693 29.8255 34.259 29.167 35.9166 29.167H44.25C45.4006 29.167 46.3333 30.0997 46.3333 31.2503C46.3333 32.4009 45.4006 33.3337 44.25 33.3337H35.9166Z" fill="#03E287"/>
<path fill-rule="evenodd" clip-rule="evenodd" d="M15.0833 6.25C16.2339 6.25 17.1667 7.18274 17.1667 8.33333V12.1072C17.4859 12.8315 18.0059 13.4521 18.6682 13.8936C19.4197 14.3946 20.3136 14.6378 21.2154 14.5867L21.3333 16.6667V14.5833C22.9909 14.5833 24.5806 15.2418 25.7527 16.4139C26.9249 17.586 27.5833 19.1757 27.5833 20.8333C27.5833 21.3859 27.8028 21.9158 28.1935 22.3065C28.5842 22.6972 29.1141 22.9167 29.6667 22.9167C30.2192 22.9167 30.7491 22.6972 31.1398 22.3065C31.5305 21.9158 31.75 21.3859 31.75 20.8333C31.75 19.1757 32.4085 17.586 33.5806 16.4139C34.7527 15.2418 36.3424 14.5833 38 14.5833H44.25C45.4006 14.5833 46.3333 15.5161 46.3333 16.6667C46.3333 17.8173 45.4006 18.75 44.25 18.75H38C37.4475 18.75 36.9176 18.9695 36.5269 19.3602C36.1362 19.7509 35.9167 20.2808 35.9167 20.8333C35.9167 22.4909 35.2582 24.0807 34.0861 25.2528C32.914 26.4249 31.3243 27.0833 29.6667 27.0833C28.0091 27.0833 26.4194 26.4249 25.2472 25.2528C24.0751 24.0807 23.4167 22.4909 23.4167 20.8333C23.4167 20.2808 23.1972 19.7509 22.8065 19.3602C22.4264 18.9801 21.9145 18.762 21.3782 18.7505C19.5995 18.8357 17.8396 18.3489 16.3569 17.3604C14.8539 16.3584 13.7172 14.8952 13.118 13.1911C13.0399 12.9691 13 12.7354 13 12.5V8.33333C13 7.18274 13.9327 6.25 15.0833 6.25Z" fill="#03E287"/>
<path fill-rule="evenodd" clip-rule="evenodd" d="M4.66663 22.9163C4.66663 21.7657 5.59937 20.833 6.74996 20.833H10.9166C12.5742 20.833 14.1639 21.4915 15.336 22.6636C16.5081 23.8357 17.1666 25.4254 17.1666 27.083V29.1663C17.1666 29.7189 17.3861 30.2488 17.7768 30.6395C18.1675 31.0302 18.6974 31.2497 19.25 31.2497C20.9076 31.2497 22.4973 31.9082 23.6694 33.0803C24.8415 34.2524 25.5 35.8421 25.5 37.4997V45.833C25.5 46.9836 24.5672 47.9163 23.4166 47.9163C22.266 47.9163 21.3333 46.9836 21.3333 45.833V37.4997C21.3333 36.9471 21.1138 36.4172 20.7231 36.0265C20.3324 35.6358 19.8025 35.4163 19.25 35.4163C17.5924 35.4163 16.0026 34.7579 14.8305 33.5858C13.6584 32.4137 13 30.8239 13 29.1663V27.083C13 26.5305 12.7805 26.0006 12.3898 25.6099C11.9991 25.2192 11.4692 24.9997 10.9166 24.9997H6.74996C5.59937 24.9997 4.66663 24.0669 4.66663 22.9163Z" fill="#03E287"/>
<path fill-rule="evenodd" clip-rule="evenodd" d="M25.5 6.24967C15.1447 6.24967 6.75004 14.6443 6.75004 24.9997C6.75004 35.355 15.1447 43.7497 25.5 43.7497C35.8554 43.7497 44.25 35.355 44.25 24.9997C44.25 14.6443 35.8554 6.24967 25.5 6.24967ZM2.58337 24.9997C2.58337 12.3431 12.8435 2.08301 25.5 2.08301C38.1566 2.08301 48.4167 12.3431 48.4167 24.9997C48.4167 37.6562 38.1566 47.9163 25.5 47.9163C12.8435 47.9163 2.58337 37.6562 2.58337 24.9997Z" fill="#03E287"/>
</svg>
