<svg width="81" height="94" viewBox="0 0 81 94" fill="none" xmlns="http://www.w3.org/2000/svg">
<g clip-path="url(#clip0_270_3597)">
<path d="M40.5008 0L0 23.4996V70.4988L40.5008 94L81 70.4988V23.4996L40.5008 0Z" fill="white"/>
<path d="M10.8115 60.8665L40.4892 78.0621L70.1042 60.8777L40.4892 43.6934L10.8115 60.8665Z" fill="#001A2A"/>
<path d="M10.8115 47.1282L40.4892 64.3239L70.1042 47.1395L40.4892 29.9551L10.8115 47.1282Z" fill="#009F75"/>
<path d="M47.4033 20.2293L17.7722 37.4234L10.8523 33.4151L10.8105 33.3893L39.6353 16.7085L40.4882 16.2178L47.4033 20.2293Z" fill="#00EE93"/>
<path d="M58.2735 26.5819L28.652 43.7711L21.7354 39.7612L51.3632 22.5703L58.2735 26.5819Z" fill="#00EE93"/>
<path d="M70.1049 33.3985L40.4883 50.5845L40.4658 50.5716L33.5459 46.5633L63.169 29.374L70.0824 33.3856L70.1049 33.3985Z" fill="#00EE93"/>
</g>
<defs>
<clipPath id="clip0_270_3597">
<rect width="81" height="94" fill="white"/>
</clipPath>
</defs>
</svg>
