<svg width="64" height="63" viewBox="0 0 64 63" fill="none" xmlns="http://www.w3.org/2000/svg">
<path fill-rule="evenodd" clip-rule="evenodd" d="M32 7.875C25.5835 7.875 24.7802 7.90178 22.2602 8.01675C19.7449 8.13173 18.0266 8.53178 16.524 9.1161C14.949 9.7083 13.5205 10.6375 12.3393 11.8408C11.1379 13.0207 10.2081 14.4483 9.61453 16.024C9.03335 17.5266 8.63173 19.2465 8.51675 21.7618C8.40335 24.2802 8.375 25.0819 8.375 31.5C8.375 37.9181 8.40178 38.7198 8.51675 41.2398C8.63173 43.7551 9.03178 45.4734 9.6161 46.976C10.2083 48.551 11.1375 49.9795 12.3408 51.1607C13.5208 52.3621 14.9483 53.2919 16.524 53.8855C18.0266 54.4682 19.7449 54.8683 22.2602 54.9833C24.7802 55.0982 25.5835 55.125 32 55.125C38.4166 55.125 39.2198 55.0982 41.7398 54.9833C44.2551 54.8683 45.9734 54.4682 47.476 53.8839C49.051 53.2917 50.4795 52.3625 51.6607 51.1592C52.8621 49.9793 53.7919 48.5517 54.3855 46.976C54.9682 45.4734 55.3683 43.7551 55.4833 41.2398C55.5982 38.7198 55.625 37.9166 55.625 31.5C55.625 25.0835 55.5982 24.2802 55.4833 21.7602C55.3683 19.2449 54.9682 17.5266 54.3839 16.024C53.7908 14.4476 52.8609 13.0195 51.6592 11.8393C50.4793 10.6379 49.0517 9.70808 47.476 9.11453C45.9734 8.53335 44.2535 8.13173 41.7382 8.01675C39.2198 7.90335 38.4181 7.875 32 7.875ZM32 12.1322C38.3079 12.1322 39.056 12.1559 41.5477 12.2693C43.8503 12.3748 45.1009 12.7575 45.934 13.0835C47.0365 13.5104 47.824 14.0238 48.6509 14.8491C49.4778 15.676 49.9897 16.4635 50.4165 17.566C50.7409 18.3992 51.1252 19.6497 51.2307 21.9523C51.3441 24.444 51.3678 25.1921 51.3678 31.5C51.3678 37.8079 51.3441 38.556 51.2307 41.0477C51.1252 43.3503 50.7425 44.6009 50.4165 45.434C50.0384 46.4602 49.4351 47.3886 48.6509 48.1509C47.8887 48.9352 46.9603 49.5386 45.934 49.9165C45.1009 50.2409 43.8503 50.6252 41.5477 50.7307C39.056 50.8441 38.3095 50.8678 32 50.8678C25.6906 50.8678 24.944 50.8441 22.4523 50.7307C20.1497 50.6252 18.8992 50.2425 18.066 49.9165C17.0398 49.5384 16.1114 48.9351 15.3491 48.1509C14.565 47.3885 13.9617 46.4602 13.5835 45.434C13.2591 44.6009 12.8748 43.3503 12.7693 41.0477C12.6559 38.556 12.6322 37.8079 12.6322 31.5C12.6322 25.1921 12.6559 24.444 12.7693 21.9523C12.8748 19.6497 13.2575 18.3992 13.5835 17.566C14.0104 16.4635 14.5238 15.676 15.3491 14.8491C16.1113 14.0648 17.0397 13.4615 18.066 13.0835C18.8992 12.7591 20.1497 12.3748 22.4523 12.2693C24.944 12.1559 25.6921 12.1322 32 12.1322V12.1322Z" fill="white"/>
<path fill-rule="evenodd" clip-rule="evenodd" d="M31.9999 39.3827C30.9647 39.3827 29.9397 39.1788 28.9833 38.7826C28.0269 38.3865 27.1579 37.8058 26.4259 37.0738C25.6939 36.3419 25.1133 35.4729 24.7171 34.5165C24.321 33.5601 24.1171 32.535 24.1171 31.4998C24.1171 30.4646 24.321 29.4396 24.7171 28.4832C25.1133 27.5268 25.6939 26.6578 26.4259 25.9258C27.1579 25.1938 28.0269 24.6131 28.9833 24.217C29.9397 23.8208 30.9647 23.6169 31.9999 23.6169C34.0906 23.6169 36.0956 24.4475 37.574 25.9258C39.0523 27.4041 39.8828 29.4091 39.8828 31.4998C39.8828 33.5905 39.0523 35.5955 37.574 37.0738C36.0956 38.5522 34.0906 39.3827 31.9999 39.3827V39.3827ZM31.9999 19.3566C28.7793 19.3566 25.6907 20.6359 23.4134 22.9132C21.1361 25.1905 19.8567 28.2792 19.8567 31.4998C19.8567 34.7204 21.1361 37.8091 23.4134 40.0864C25.6907 42.3637 28.7793 43.6431 31.9999 43.6431C35.2205 43.6431 38.3092 42.3637 40.5865 40.0864C42.8638 37.8091 44.1432 34.7204 44.1432 31.4998C44.1432 28.2792 42.8638 25.1905 40.5865 22.9132C38.3092 20.6359 35.2205 19.3566 31.9999 19.3566V19.3566ZM47.6759 19.1361C47.6759 19.8974 47.3735 20.6275 46.8352 21.1658C46.2969 21.7041 45.5668 22.0065 44.8055 22.0065C44.0442 22.0065 43.3141 21.7041 42.7758 21.1658C42.2375 20.6275 41.935 19.8974 41.935 19.1361C41.935 18.3748 42.2375 17.6447 42.7758 17.1064C43.3141 16.568 44.0442 16.2656 44.8055 16.2656C45.5668 16.2656 46.2969 16.568 46.8352 17.1064C47.3735 17.6447 47.6759 18.3748 47.6759 19.1361" fill="white"/>
</svg>
