<svg width="105" height="104" viewBox="0 0 105 104" fill="none" xmlns="http://www.w3.org/2000/svg">
<g clip-path="url(#clip0_270_2570)">
<path d="M96.3562 51.9997C96.3562 76.2235 76.7238 95.8558 52.5001 95.8558C28.2763 95.8558 8.64392 76.2235 8.64392 51.9997C8.64392 27.7759 28.2763 8.14355 52.5001 8.14355C76.7238 8.14355 96.3562 27.7759 96.3562 51.9997Z" fill="#EBFFF2"/>
<path d="M52.5 104C23.8332 104 0.5 80.6767 0.5 52C0.5 23.3233 23.8332 0 52.5 0C81.1668 0 104.5 23.3233 104.5 52C104.5 80.6767 81.1767 104 52.5 104ZM52.5 1.66242C24.7436 1.66242 2.16242 24.2436 2.16242 52C2.16242 79.7564 24.7436 102.338 52.5 102.338C80.2564 102.338 102.838 79.7564 102.838 52C102.838 24.2436 80.2564 1.66242 52.5 1.66242Z" fill="#EBFFF2"/>
<path d="M66.9768 55.5921C64.2655 55.5921 62.049 57.7987 62.049 60.51V65.5468H68.5205C68.8273 65.0718 69.1439 64.5968 69.4408 64.0823C70.3313 62.598 71.1032 61.0246 71.7662 59.4018C71.2615 57.2149 69.3022 55.5723 66.9669 55.5723L66.9768 55.5921Z" fill="#03E287"/>
<path d="M56.3987 67.3376C56.3987 66.358 57.2002 65.5564 58.1799 65.5564H59.1793V60.5197C59.1793 56.2251 62.6724 52.7222 66.9768 52.7222C69.4705 52.7222 71.687 53.8997 73.1119 55.7205C75.0712 49.5458 75.7738 43.2622 76.0212 39.3536C76.1102 37.988 75.3681 36.6917 74.1905 36.1376L53.8061 26.6084C53.3905 26.4105 52.9452 26.3115 52.5 26.3115C52.0547 26.3115 51.6094 26.4105 51.1938 26.6084L30.8094 36.1376C29.6219 36.6917 28.8897 37.9781 28.9787 39.3536C29.3449 45.1127 30.6906 55.9777 35.5591 64.0919C41.6151 74.1852 48.9574 76.9064 51.8271 77.5991C52.2724 77.7079 52.7374 77.7079 53.1827 77.5991C53.9645 77.411 55.0826 77.0647 56.4086 76.471V67.3277L56.3987 67.3376Z" fill="#03E287"/>
<path d="M68.5304 65.557H71.9047V60.5203C71.9047 60.1442 71.8651 59.7781 71.7761 59.4219C71.1032 61.0447 70.3313 62.6181 69.4507 64.1024C69.1439 64.607 68.8372 65.0919 68.5304 65.5669V65.557Z" fill="#03E38A"/>
<path d="M75.4373 33.4956L55.0529 23.9664C53.44 23.2143 51.5698 23.2143 49.9568 23.9664L29.5724 33.4956C27.3064 34.5544 25.9013 36.9886 26.0596 39.5416C26.4455 45.558 27.8606 56.9574 33.0556 65.5961C39.6756 76.6393 47.9085 79.6573 51.1443 80.4391C51.5896 80.5479 52.0547 80.5974 52.5098 80.5974C52.965 80.5974 53.4301 80.538 53.8754 80.4391C54.5582 80.2709 55.4784 80.0037 56.5471 79.5782C56.4581 79.3605 56.4086 79.1329 56.4086 78.8855V76.471C55.0826 77.0648 53.9645 77.4111 53.1827 77.5991C52.7374 77.708 52.2724 77.708 51.8271 77.5991C48.9574 76.8965 41.6151 74.1852 35.5591 64.092C30.6906 55.9778 29.3449 45.1028 28.9787 39.3536C28.8897 37.9881 29.6318 36.6918 30.8094 36.1376L51.1938 26.6084C51.6094 26.4105 52.0448 26.3116 52.4999 26.3116C52.9551 26.3116 53.3905 26.4105 53.8061 26.6084L74.1905 36.1376C75.378 36.6918 76.1102 37.9881 76.0212 39.3536C75.7738 43.2722 75.0712 49.5557 73.1119 55.7205C74.0223 56.8783 74.6061 58.3131 74.7348 59.8667C77.6836 52.4056 78.6335 44.3013 78.9403 39.5416C79.0986 36.9787 77.6935 34.5544 75.4274 33.4956H75.4373Z" fill="#03E38A"/>
<path d="M47.6711 18.4351L48.1065 18.5439L47.6711 18.6528C45.0785 19.296 43.0599 21.3245 42.4068 23.9072L42.2979 24.3525L42.1891 23.9072C41.536 21.3245 39.5174 19.296 36.9248 18.6528L36.4894 18.5439L36.9248 18.4351C39.5174 17.782 41.536 15.7633 42.1891 13.1806L42.2979 12.7354L42.4068 13.1806C43.0599 15.7633 45.0785 17.7919 47.6711 18.4351Z" fill="#03E287"/>
<path d="M29.622 29.8936L29.9188 29.9727L29.622 30.0519C27.8903 30.4873 26.5544 31.833 26.119 33.5548L26.0497 33.8517L25.9805 33.5548C25.5451 31.833 24.1993 30.4873 22.4775 30.0519L22.1807 29.9727L22.4775 29.8936C24.2092 29.4582 25.555 28.1124 25.9805 26.3906L26.0497 26.0938L26.119 26.3906C26.5544 28.1124 27.9002 29.4582 29.622 29.8936Z" fill="#03E287"/>
<path d="M85.6592 60.9259L85.9363 60.9951L85.6592 61.0644C84.0364 61.4701 82.7698 62.7367 82.3641 64.3694L82.2948 64.6465L82.2255 64.3694C81.8198 62.7466 80.5532 61.48 78.9205 61.0644L78.6434 60.9951L78.9205 60.9259C80.5433 60.5202 81.8198 59.2535 82.2255 57.6208L82.2948 57.3438L82.3641 57.6208C82.7698 59.2437 84.0364 60.5103 85.6592 60.9259Z" fill="#FFBE1B"/>
<path d="M47.5523 84.1891L47.9481 84.288L47.5523 84.387C45.2566 84.9609 43.4754 86.752 42.9015 89.0378L42.8025 89.4336L42.7036 89.0378C42.1297 86.7421 40.3386 84.9609 38.0528 84.387L37.6669 84.288L38.0528 84.1891C40.3485 83.6151 42.1297 81.8241 42.7036 79.5383L42.8025 79.1523L42.9015 79.5383C43.4754 81.8241 45.2665 83.6151 47.5523 84.1891Z" fill="#FFBE1D"/>
<path d="M56.1513 86.0996L56.3987 86.159L56.1513 86.2184C54.6967 86.5845 53.5588 87.7225 53.1926 89.1771L53.1333 89.4245L53.0739 89.1771C52.7078 87.7225 51.5698 86.5845 50.1152 86.2184L49.8678 86.159L50.1152 86.0996C51.5698 85.7335 52.7078 84.5956 53.0739 83.1409L53.1333 82.8936L53.1926 83.1409C53.5588 84.5956 54.6967 85.7335 56.1513 86.0996Z" fill="#FFBE1D"/>
<path d="M62.0589 65.5569V60.5202C62.0589 57.8089 64.2655 55.6022 66.9867 55.6022C69.708 55.6022 71.9047 57.8089 71.9047 60.5202V65.5569H74.7744V60.5202C74.7744 56.2256 71.2813 52.7227 66.9867 52.7227C62.6922 52.7227 59.1892 56.2157 59.1892 60.5202V65.5569H62.0589Z" fill="#038551"/>
<path d="M75.7838 80.6668H58.1899C57.2102 80.6668 56.4087 79.8653 56.4087 78.8857V67.3378C56.4087 66.3582 57.2102 65.5566 58.1899 65.5566H75.7838C76.7634 65.5566 77.5649 66.3582 77.5649 67.3378V78.8857C77.5649 79.8653 76.7634 80.6668 75.7838 80.6668Z" fill="#038450"/>
<path d="M49.9273 58.0855C49.1554 58.0855 48.4034 57.7887 47.8492 57.2444L41.6746 51.2775C40.4871 50.1297 40.4574 48.2298 41.6053 47.0423C42.7531 45.8549 44.6531 45.8252 45.8405 46.9731L49.6997 50.7135L59.1497 39.4724C60.2184 38.2058 62.0985 38.0475 63.3651 39.1063C64.6317 40.175 64.7901 42.0551 63.7313 43.3217L52.2131 57.0168C51.6787 57.6501 50.9069 58.0361 50.0757 58.0756C50.0262 58.0756 49.9767 58.0756 49.9174 58.0756L49.9273 58.0855Z" fill="white"/>
</g>
<defs>
<clipPath id="clip0_270_2570">
<rect width="104" height="104" fill="white" transform="translate(0.5)"/>
</clipPath>
</defs>
</svg>
