<svg width="51" height="50" viewBox="0 0 51 50" fill="none" xmlns="http://www.w3.org/2000/svg">
<path fill-rule="evenodd" clip-rule="evenodd" d="M22.3795 2.92266C23.3285 2.37578 24.4046 2.08789 25.5 2.08789C26.5954 2.08789 27.6716 2.3758 28.6207 2.92272C28.6221 2.92356 28.6236 2.9244 28.625 2.92523L43.2084 11.2585C44.1575 11.8066 44.9459 12.5945 45.4944 13.5434C46.0429 14.4923 46.3322 15.5688 46.3334 16.6648V33.3358C46.3322 34.4318 46.0429 35.5082 45.4944 36.4571C44.9459 37.406 44.1575 38.194 43.2084 38.742L43.2003 38.7466L28.625 47.0753C28.6238 47.0761 28.6225 47.0768 28.6213 47.0775C27.6721 47.6246 26.5957 47.9127 25.5 47.9127C24.4044 47.9127 23.3281 47.6247 22.3789 47.0776C22.3776 47.0768 22.3763 47.0761 22.375 47.0753L7.79973 38.7466L7.79169 38.742C6.84251 38.194 6.05412 37.406 5.50563 36.4571C4.95713 35.5082 4.66781 34.4318 4.66669 33.3358V16.6648C4.66781 15.5688 4.95713 14.4923 5.50563 13.5434C6.05413 12.5946 6.84251 11.8066 7.79169 11.2586L7.79972 11.2539L22.3795 2.92266ZM25.5 6.25456C25.1343 6.25456 24.7751 6.35082 24.4584 6.53367L24.4503 6.53831L9.87502 14.867C9.87392 14.8676 9.87283 14.8683 9.87174 14.8689C9.55681 15.0515 9.2952 15.3134 9.113 15.6286C8.93032 15.9447 8.83389 16.3032 8.83335 16.6682V33.3324C8.83389 33.6974 8.93032 34.0559 9.113 34.3719C9.2952 34.6871 9.55681 34.9491 9.87174 35.1317C9.87283 35.1323 9.87392 35.1329 9.87502 35.1336L24.4584 43.4669C24.7751 43.6498 25.1343 43.746 25.5 43.746C25.8657 43.746 26.225 43.6498 26.5417 43.4669L26.5497 43.4623L41.125 35.1336C41.1261 35.1329 41.1272 35.1323 41.1283 35.1317C41.4432 34.9491 41.7048 34.6871 41.887 34.3719C42.0699 34.0556 42.1663 33.6968 42.1667 33.3315V16.6691C42.1663 16.3037 42.0699 15.9449 41.887 15.6286C41.7048 15.3134 41.4432 15.0515 41.1283 14.8689C41.1272 14.8683 41.1261 14.8676 41.125 14.867L26.5417 6.53369C26.225 6.35084 25.8657 6.25456 25.5 6.25456Z" fill="#5BF7FF" fill-opacity="0.7"/>
<path fill-rule="evenodd" clip-rule="evenodd" d="M14.3211 7.72894C14.8967 6.73268 16.171 6.39168 17.1672 6.9673L25.5 11.7818L33.8328 6.9673C34.829 6.39168 36.1033 6.73268 36.6789 7.72894C37.2545 8.72519 36.9135 9.99945 35.9172 10.5751L26.5422 15.9917C25.8974 16.3643 25.1026 16.3643 24.4578 15.9917L15.0828 10.5751C14.0865 9.99945 13.7455 8.72519 14.3211 7.72894Z" fill="#5BF7FF" fill-opacity="0.7"/>
<path fill-rule="evenodd" clip-rule="evenodd" d="M4.94612 23.9575C5.52173 22.9612 6.79599 22.6202 7.79225 23.1958L17.1672 28.6125C17.8115 28.9847 18.2083 29.6723 18.2083 30.4164V41.2289C18.2083 42.3795 17.2756 43.3122 16.125 43.3122C14.9744 43.3122 14.0417 42.3795 14.0417 41.2289V31.6187L5.70776 26.8036C4.7115 26.228 4.3705 24.9537 4.94612 23.9575Z" fill="#5BF7FF" fill-opacity="0.7"/>
<path fill-rule="evenodd" clip-rule="evenodd" d="M46.0538 23.9575C46.6295 24.9537 46.2885 26.228 45.2922 26.8036L36.9583 31.6187V41.2289C36.9583 42.3795 36.0256 43.3122 34.875 43.3122C33.7244 43.3122 32.7916 42.3795 32.7916 41.2289V30.4164C32.7916 29.6723 33.1885 28.9847 33.8327 28.6125L43.2077 23.1958C44.204 22.6202 45.4782 22.9612 46.0538 23.9575Z" fill="#5BF7FF" fill-opacity="0.7"/>
<path fill-rule="evenodd" clip-rule="evenodd" d="M5.50915 13.4565C6.08528 12.4606 7.35971 12.1202 8.35567 12.6963L25.5 22.6137L42.6443 12.6963C43.6403 12.1202 44.9147 12.4606 45.4908 13.4565C46.067 14.4525 45.7266 15.7269 44.7307 16.303L26.5432 26.8239C25.8978 27.1972 25.1022 27.1972 24.4568 26.8239L6.26933 16.303C5.27336 15.7269 4.93302 14.4525 5.50915 13.4565Z" fill="#5BF7FF" fill-opacity="0.7"/>
<path fill-rule="evenodd" clip-rule="evenodd" d="M25.5 22.917C26.6506 22.917 27.5833 23.8497 27.5833 25.0003V46.0003C27.5833 47.1509 26.6506 48.0837 25.5 48.0837C24.3494 48.0837 23.4166 47.1509 23.4166 46.0003V25.0003C23.4166 23.8497 24.3494 22.917 25.5 22.917Z" fill="#5BF7FF" fill-opacity="0.7"/>
</svg>
