<svg width="64" height="63" viewBox="0 0 64 63" fill="none" xmlns="http://www.w3.org/2000/svg">
<path fill-rule="evenodd" clip-rule="evenodd" d="M58.25 31.5C58.25 45.9975 46.4975 57.75 32 57.75C17.5025 57.75 5.75 45.9975 5.75 31.5C5.75 17.0025 17.5025 5.25 32 5.25C46.4975 5.25 58.25 17.0025 58.25 31.5ZM32.9406 24.6289C30.3874 25.6909 25.2846 27.8889 17.6322 31.2229C16.3896 31.7171 15.7386 32.2005 15.6794 32.6732C15.5792 33.4721 16.5796 33.7866 17.9419 34.215C18.1272 34.2733 18.3192 34.3336 18.5161 34.3976C19.8563 34.8333 21.6593 35.343 22.5965 35.3632C23.4467 35.3816 24.3956 35.0311 25.4432 34.3117C32.5931 29.4854 36.2839 27.0459 36.5156 26.9933C36.6791 26.9562 36.9056 26.9095 37.0591 27.0459C37.2126 27.1824 37.1975 27.4407 37.1813 27.51C37.0822 27.9325 33.1552 31.5834 31.123 33.4727C30.4895 34.0617 30.0401 34.4795 29.9482 34.5749C29.7425 34.7886 29.5327 34.9908 29.3312 35.1851C28.086 36.3855 27.1523 37.2856 29.3829 38.7555C30.4548 39.4619 31.3125 40.046 32.1682 40.6288C33.1028 41.2652 34.0349 41.9 35.241 42.6906C35.5482 42.892 35.8417 43.1012 36.1275 43.305C37.2151 44.0803 38.1922 44.7769 39.3994 44.6658C40.1008 44.6013 40.8253 43.9417 41.1933 41.9746C42.0629 37.3257 43.7723 27.2529 44.1673 23.1022C44.2019 22.7385 44.1584 22.2731 44.1234 22.0688C44.0884 21.8645 44.0154 21.5734 43.7498 21.3579C43.4353 21.1027 42.9498 21.0489 42.7326 21.0527C41.7453 21.0701 40.2305 21.5968 32.9406 24.6289Z" fill="white"/>
</svg>
