<svg width="105" height="104" viewBox="0 0 105 104" fill="none" xmlns="http://www.w3.org/2000/svg">
<g clip-path="url(#clip0_270_2526)">
<path d="M96.366 51.9997C96.366 76.2235 76.7337 95.8558 52.5099 95.8558C28.2861 95.8558 8.64386 76.2235 8.64386 51.9997C8.64386 27.7759 28.2762 8.14355 52.5 8.14355C76.7238 8.14355 96.3561 27.7759 96.3561 51.9997H96.366Z" fill="#EBFFF3"/>
<path d="M52.5 104C23.8332 104 0.5 80.6767 0.5 52C0.5 23.3233 23.8332 0 52.5 0C81.1668 0 104.5 23.3332 104.5 52C104.5 80.6668 81.1767 104 52.5 104ZM52.5 1.66242C24.7436 1.66242 2.16242 24.2436 2.16242 52C2.16242 79.7564 24.7436 102.338 52.5 102.338C80.2564 102.338 102.838 79.7564 102.838 52C102.838 24.2436 80.2564 1.66242 52.5 1.66242Z" fill="#EBFFF3"/>
<path d="M67.1649 48.0715L60.6241 54.5035V48.0715H57.1805C54.5483 48.0715 52.4208 45.9341 52.4208 43.3019V39.1162C41.7932 39.2745 33.2338 47.933 33.2338 58.5902C33.2338 69.2475 41.9516 78.0643 52.7078 78.0643C63.464 78.0643 72.1818 69.3465 72.1818 58.5902C72.1818 54.7113 71.0438 51.0995 69.0945 48.0616H67.1649V48.0715Z" fill="#F3BB35"/>
<path d="M60.6241 54.4934V48.0614H57.1805C54.776 48.0614 52.7969 46.2802 52.4604 43.9746C44.4947 44.1032 38.0825 50.5946 38.0825 58.59C38.0825 66.5855 44.6233 73.2054 52.6979 73.2054C60.7725 73.2054 67.3133 66.6646 67.3133 58.59C67.3133 55.5522 66.3832 52.7221 64.7999 50.3868L60.6241 54.4934Z" fill="#FFE481"/>
<path d="M37.4789 76.3527L37.9637 76.4714L37.4789 76.5902C34.6686 77.2927 32.4619 79.4895 31.7594 82.3097L31.6406 82.7945L31.5219 82.3097C30.8193 79.4994 28.6225 77.2927 25.8024 76.5902L25.3274 76.4714L25.8024 76.3527C28.6225 75.6501 30.8193 73.4533 31.5219 70.6332L31.6406 70.1582L31.7594 70.6332C32.4619 73.4435 34.6587 75.6501 37.4789 76.3527Z" fill="#06E598"/>
<path d="M46.1966 29.4086L46.7409 29.5471L46.1966 29.6856C43.04 30.4773 40.5662 32.9412 39.7746 36.1077L39.636 36.6421L39.4975 36.1077C38.7059 32.9511 36.2419 30.4773 33.0754 29.6856L32.5411 29.5471L33.0754 29.4086C36.2419 28.6169 38.7059 26.153 39.4975 22.9865L39.636 22.4521L39.7746 22.9865C40.5662 26.1431 43.0301 28.6169 46.1966 29.4086Z" fill="#06E598"/>
<path d="M32.8676 39.9075L33.2239 39.9966L32.8676 40.0856C30.7599 40.6101 29.1074 42.2626 28.5829 44.3703L28.4939 44.7265L28.4048 44.3703C27.8705 42.2626 26.2279 40.6101 24.1201 40.0856L23.7639 39.9966L24.1201 39.9075C26.2279 39.3831 27.8804 37.7305 28.4048 35.6228L28.4939 35.2666L28.5829 35.6228C29.1173 37.7305 30.7599 39.3831 32.8676 39.9075Z" fill="#06E598"/>
<path d="M78.1388 27.1826H57.1904C54.5582 27.1826 52.4307 29.32 52.4307 31.9423V43.3021C52.4307 45.9343 54.5681 48.0717 57.1904 48.0717H60.634V54.5036L67.1748 48.0717H78.1388C80.771 48.0717 82.8985 45.9343 82.8985 43.3021V31.9423C82.8985 29.3101 80.7611 27.1826 78.1388 27.1826Z" fill="#04E38E"/>
<path d="M66.017 44.1333C65.5024 44.1333 65.0077 43.9354 64.6317 43.5692L60.535 39.6111C59.7434 38.8491 59.7236 37.5924 60.4855 36.8008C61.2474 36.0092 62.5042 35.9894 63.2958 36.7513L65.8587 39.2351L72.1422 31.774C72.8448 30.9329 74.1015 30.824 74.9426 31.5365C75.7837 32.2391 75.8926 33.4958 75.1801 34.3369L67.531 43.4307C67.1748 43.8562 66.6602 44.1135 66.116 44.1333C66.0764 44.1333 66.0467 44.1333 66.017 44.1333Z" fill="white"/>
<path d="M85.0952 62.9839L85.4713 63.073L85.0952 63.1621C82.9084 63.7063 81.2064 65.4182 80.6621 67.5952L80.5731 67.9712L80.484 67.5952C79.9398 65.4083 78.2279 63.7063 76.041 63.1621L75.665 63.073L76.041 62.9839C78.2279 62.4397 79.9299 60.7278 80.484 58.5508L80.5731 58.1748L80.6621 58.5508C81.2064 60.7377 82.9183 62.4397 85.0952 62.9839Z" fill="#04E38E"/>
</g>
<defs>
<clipPath id="clip0_270_2526">
<rect width="104" height="104" fill="white" transform="translate(0.5)"/>
</clipPath>
</defs>
</svg>
