<svg width="40" height="40" viewBox="0 0 40 40" fill="none" xmlns="http://www.w3.org/2000/svg">
<path fill-rule="evenodd" clip-rule="evenodd" d="M2.44078 25.7738C4.00358 24.211 6.1232 23.333 8.33333 23.333H21.6667C23.8768 23.333 25.9964 24.211 27.5592 25.7738C29.122 27.3366 30 29.4562 30 31.6663V34.9997C30 35.9201 29.2538 36.6663 28.3333 36.6663C27.4129 36.6663 26.6667 35.9201 26.6667 34.9997V31.6663C26.6667 30.3403 26.1399 29.0685 25.2022 28.1308C24.2645 27.1931 22.9927 26.6663 21.6667 26.6663H8.33333C7.00725 26.6663 5.73548 27.1931 4.7978 28.1308C3.86012 29.0685 3.33333 30.3403 3.33333 31.6663V34.9997C3.33333 35.9201 2.58714 36.6663 1.66667 36.6663C0.746192 36.6663 0 35.9201 0 34.9997V31.6663C0 29.4562 0.877974 27.3366 2.44078 25.7738Z" fill="#03E287"/>
<path fill-rule="evenodd" clip-rule="evenodd" d="M14.9998 6.66634C12.2384 6.66634 9.99984 8.90492 9.99984 11.6663C9.99984 14.4278 12.2384 16.6663 14.9998 16.6663C17.7613 16.6663 19.9998 14.4278 19.9998 11.6663C19.9998 8.90492 17.7613 6.66634 14.9998 6.66634ZM6.6665 11.6663C6.6665 7.06397 10.3975 3.33301 14.9998 3.33301C19.6022 3.33301 23.3332 7.06397 23.3332 11.6663C23.3332 16.2687 19.6022 19.9997 14.9998 19.9997C10.3975 19.9997 6.6665 16.2687 6.6665 11.6663Z" fill="#03E287"/>
<path fill-rule="evenodd" clip-rule="evenodd" d="M31.7198 24.8002C31.9499 23.909 32.859 23.373 33.7502 23.6031C35.538 24.0647 37.1219 25.107 38.2531 26.5663C39.3843 28.0256 39.9989 29.8192 40.0002 31.6656L40.0002 35.0002C40.0002 35.9207 39.254 36.6669 38.3336 36.6669C37.4131 36.6669 36.6669 35.9207 36.6669 35.0002V31.6681C36.6669 31.668 36.6669 31.6683 36.6669 31.6681C36.666 30.5605 36.2973 29.484 35.6186 28.6085C34.9399 27.7329 33.9896 27.1076 32.9169 26.8306C32.0257 26.6005 31.4897 25.6915 31.7198 24.8002Z" fill="#03E287"/>
<path fill-rule="evenodd" clip-rule="evenodd" d="M25.052 4.80347C25.2803 3.91176 26.1883 3.37398 27.08 3.60229C28.8725 4.06125 30.4613 5.10375 31.5959 6.56544C32.7305 8.02712 33.3463 9.82485 33.3463 11.6752C33.3463 13.5256 32.7305 15.3233 31.5959 16.785C30.4613 18.2467 28.8725 19.2892 27.08 19.7481C26.1883 19.9764 25.2803 19.4386 25.052 18.5469C24.8237 17.6552 25.3615 16.7473 26.2532 16.519C27.3287 16.2436 28.282 15.6181 28.9627 14.7411C29.6435 13.8641 30.013 12.7854 30.013 11.6752C30.013 10.565 29.6435 9.48636 28.9627 8.60934C28.282 7.73233 27.3287 7.10683 26.2532 6.83146C25.3615 6.60314 24.8237 5.69518 25.052 4.80347Z" fill="#03E287"/>
</svg>
